<?xml version="1.0" encoding="UTF-8" standalone="no"?>
<svg
   xmlns:dc="http://purl.org/dc/elements/1.1/"
   xmlns:cc="http://creativecommons.org/ns#"
   xmlns:rdf="http://www.w3.org/1999/02/22-rdf-syntax-ns#"
   xmlns:svg="http://www.w3.org/2000/svg"
   xmlns="http://www.w3.org/2000/svg"
   xml:space="preserve"
   style="enable-background:new 609.4 645.8 93.2 100;"
   viewBox="609.4 645.8 93.2 100"
   height="100px"
   width="93.2px"
   y="0px"
   x="0px"
   id="Layer_1"
   version="1.1"><metadata
     id="metadata11"><rdf:RDF><cc:Work
         rdf:about=""><dc:format>image/svg+xml</dc:format><dc:type
           rdf:resource="http://purl.org/dc/dcmitype/StillImage" /></cc:Work></rdf:RDF></metadata><defs
     id="defs9" /><style
     id="style2"
     type="text/css">
	.st0{fill:#FFFFFF;}
</style><path
     id="path4"
     d="M696.2,745.8H616c-3.7,0-6.6-2.9-6.6-6.6v-26.7c0-3.7,2.9-6.6,6.6-6.6c3.7,0,6.6,2.9,6.6,6.6v20h66.7v-20  c0-3.7,2.9-6.6,6.6-6.6c3.7,0,6.6,2.9,6.6,6.6v26.7C702.8,742.9,699.9,745.8,696.2,745.8z M660.2,707.5c-2.3,2.1-6,2.1-8.4,0  L631,688.4c-2.3-2.1-2.3-5.4,0-7.6s6-2.1,8.4,0l9.9,9.1v-37.5c0-3.7,2.9-6.6,6.6-6.6s6.6,2.9,6.6,6.6v37.4l9.9-9.1  c2.3-2.1,6-2.1,8.4,0c2.3,2.1,2.3,5.4,0,7.6L660.2,707.5z"
     class="st0" /></svg>